<?xml version="1.0" standalone="no"?>
<!DOCTYPE svg PUBLIC "-//W3C//DTD SVG 20010904//EN"
 "http://www.w3.org/TR/2001/REC-SVG-20010904/DTD/svg10.dtd">
<svg version="1.0" xmlns="http://www.w3.org/2000/svg"
 width="700.000000pt" height="700.000000pt" viewBox="0 0 700.000000 700.000000"
 preserveAspectRatio="xMidYMid meet">
<metadata>
Created by potrace 1.11, written by Peter Selinger 2001-2013
</metadata>
<g transform="translate(0.000000,700.000000) scale(0.100000,-0.100000)"
fill="#000000" stroke="none">
<path d="M655 6490 c-183 -33 -340 -183 -389 -370 -19 -73 -15 -211 9 -276 29
-77 99 -177 162 -229 l58 -47 5 -2497 c4 -2160 7 -2499 20 -2518 28 -43 53
-48 236 -48 l174 0 32 33 33 32 3 2499 2 2498 59 46 c68 53 133 143 163 225
40 113 27 294 -28 392 -59 106 -177 207 -284 243 -60 20 -191 29 -255 17z"/>
<path d="M3158 5995 c-2 -1 -37 -6 -78 -9 -41 -4 -82 -9 -90 -11 -8 -2 -33 -6
-55 -9 -22 -2 -60 -9 -85 -15 -25 -5 -60 -12 -77 -16 -210 -36 -511 -137 -781
-261 -41 -19 -76 -34 -78 -34 -12 0 -351 -169 -447 -222 -59 -33 -125 -78
-147 -101 -75 -76 -71 33 -68 -1643 l3 -1499 28 -47 c49 -84 133 -129 233
-123 54 3 98 21 219 89 165 94 421 210 615 279 47 16 103 36 125 44 143 52
492 141 625 159 30 4 66 9 80 11 187 27 425 21 614 -18 252 -51 396 -103 706
-256 382 -188 457 -215 665 -241 76 -9 333 -9 405 1 217 29 450 93 705 195
252 101 593 273 650 328 81 78 75 -51 75 1658 0 1720 6 1592 -78 1672 -63 61
-182 94 -240 66 -108 -54 -246 -127 -267 -142 -18 -14 -129 -72 -230 -122 -55
-27 -108 -53 -117 -59 -72 -39 -303 -121 -433 -153 -147 -37 -176 -40 -330
-40 -132 0 -237 15 -295 44 -30 15 -258 119 -350 160 -227 101 -552 216 -690
245 -8 2 -15 4 -15 5 0 1 -11 3 -25 5 -14 2 -59 10 -100 18 -41 9 -102 18
-135 22 -33 4 -71 9 -85 11 -27 6 -447 14 -452 9z m422 -508 c14 -3 48 -8 75
-12 240 -28 564 -139 990 -337 199 -92 212 -98 295 -121 30 -9 73 -18 95 -22
23 -3 52 -8 65 -11 56 -13 338 -13 430 1 284 41 543 126 843 275 65 33 121 60
123 60 2 0 3 -541 2 -1202 l-3 -1202 -75 -39 c-302 -156 -627 -269 -872 -304
-69 -10 -299 -10 -363 0 -87 14 -184 52 -420 167 -444 216 -742 320 -994 345
-36 3 -81 9 -100 12 -41 5 -400 5 -446 -1 -16 -2 -61 -7 -100 -10 -38 -4 -77
-9 -85 -11 -8 -2 -31 -7 -50 -10 -19 -3 -46 -7 -60 -10 -14 -3 -41 -7 -60 -10
-19 -4 -53 -10 -75 -16 -22 -5 -51 -12 -65 -15 -131 -26 -517 -152 -675 -219
-16 -7 -55 -23 -85 -35 -30 -12 -82 -35 -115 -50 -33 -15 -70 -30 -82 -34
l-23 -7 0 1169 0 1169 203 101 c450 224 817 344 1157 378 36 3 66 8 68 9 5 5
375 -3 402 -8z"/>
</g>
</svg>
